<?xml version="1.0" encoding="utf-8"?>
<!-- Generator: Adobe Illustrator 23.0.3, SVG Export Plug-In . SVG Version: 6.00 Build 0)  -->
<svg version="1.1" id="Слой_1" xmlns="http://www.w3.org/2000/svg" xmlns:xlink="http://www.w3.org/1999/xlink" x="0px" y="0px"
	 viewBox="0 0 20 20" style="enable-background:new 0 0 20 20;" xml:space="preserve">
<style type="text/css">
	.st0{fill-rule:evenodd;clip-rule:evenodd;fill:#FFFFFF;}
</style>
<title>file-upload</title>
<desc>Created with Sketch.</desc>
<g id="Page-1">
	<g id="file-upload">
		<path id="file-upload-icon" class="st0" d="M14.1,8.9l-3.7,3.7c-0.2,0.2-0.6,0.2-0.8,0L5.9,8.9C5.6,8.6,5.8,8,6.3,8l1.9,0l1.1-4.4
			c0.1-0.4,0.5-0.7,1-0.6c0.3,0.1,0.5,0.3,0.6,0.6L11.9,8l1.8,0C14.2,8,14.5,8.6,14.1,8.9z M17,11.6v2.2c0,1.7-1.4,3.1-3.1,3.1H6.1
			C4.4,17,3,15.6,3,13.9v-2.2c0-0.6,0.5-1,1-1s1,0.4,1,1v2.2C5,14.5,5.5,15,6.1,15h7.7c0.6,0,1.1-0.5,1.1-1.1v-2.2c0-0.6,0.5-1,1-1
			C16.6,10.6,17,11,17,11.6z"/>
	</g>
</g>
</svg>
